Coordinates
version=1
nRows=14
nColumns=63
inDegrees=yes

Units are S.I. units (second, meters, Newtons, ...)
If the header above contains a line with 'inDegrees', this indicates whether rotational values are in degrees (yes) or radians (no).

endheader
time	pelvis_tilt	pelvis_list	pelvis_rotation	pelvis_tx	pelvis_ty	pelvis_tz	hip_flexion_r	hip_adduction_r	hip_rotation_r	knee_angle_r	knee_angle_r_beta	ankle_angle_r	subtalar_angle_r	mtp_angle_r	hip_flexion_l	hip_adduction_l	hip_rotation_l	knee_angle_l	knee_angle_l_beta	ankle_angle_l	subtalar_angle_l	mtp_angle_l	L5_S1_Flex_Ext	L5_S1_Lat_Bending	L5_S1_axial_rotation	L4_L5_Flex_Ext	L4_L5_Lat_Bending	L4_L5_axial_rotation	L3_L4_Flex_Ext	L3_L4_Lat_Bending	L3_L4_axial_rotation	L2_L3_Flex_Ext	L2_L3_Lat_Bending	L2_L3_axial_rotation	L1_L2_Flex_Ext	L1_L2_Lat_Bending	L1_L2_axial_rotation	L1_T12_Flex_Ext	L1_T12_Lat_Bending	L1_T12_axial_rotation	Abs_r3	Abs_r2	Abs_r1	Abs_t1	Abs_t2	neck_flexion	neck_bending	neck_rotation	arm_flex_r	arm_add_r	arm_rot_r	elbow_flex_r	pro_sup_r	wrist_flex_r	wrist_dev_r	arm_flex_l	arm_add_l	arm_rot_l	elbow_flex_l	pro_sup_l	wrist_flex_l	wrist_dev_l
4.033333	0.067797	0.023591	88.716905	0.156427	0.904620	0.477402	-8.531423	-0.128563	-17.368089	7.843577	0.136896	31.147819	8.559036	0.000000	-9.761784	-1.301114	3.417031	0.473219	0.008259	28.909883	-0.030295	0.000000	-0.030312	0.360639	-0.126492	-0.056292	0.479650	-0.134398	-0.049799	0.876858	-0.134398	-0.034643	0.876858	-0.110680	-0.028147	0.735416	-0.102775	-0.017320	0.558630	-0.094869	-0.216513	4.079624	-0.703509	0.000000	0.000000	18.712418	0.466162	-2.801241	8.971679	-17.280579	104.917676	22.654373	28.156296	-9.605581	-10.431439	1.341073	-7.222921	159.434605	2.131788	15.610574	-27.837656	-9.381044
4.050000	-0.009194	-0.118108	88.793071	0.156127	0.904239	0.477938	-8.246902	-0.253735	-17.807324	8.037404	0.140279	31.564585	9.033756	0.000000	-9.573093	-1.209783	3.482480	0.493546	0.008614	28.941962	0.009381	0.000000	-0.023908	0.350219	-0.085219	-0.044400	0.465791	-0.090545	-0.039278	0.851521	-0.090545	-0.027324	0.851521	-0.074567	-0.022201	0.714166	-0.069241	-0.013661	0.542488	-0.063914	-0.170773	3.961742	-0.473963	0.000000	0.000000	18.713728	0.658177	-3.191247	8.648981	-17.277265	103.710379	22.604324	27.901200	-9.443745	-10.820399	1.355478	-7.314359	159.011727	2.250071	14.901572	-28.690850	-10.299325
4.066667	-0.064117	-0.250372	88.866489	0.155767	0.903888	0.478494	-7.985310	-0.353075	-18.161694	8.181932	0.142802	31.954664	9.487343	0.000000	-9.392597	-1.138256	3.583934	0.500641	0.008738	28.961729	-0.003199	0.000000	-0.019167	0.343586	-0.044191	-0.035595	0.456970	-0.046953	-0.031489	0.835396	-0.046953	-0.021906	0.835396	-0.038667	-0.017798	0.700641	-0.035905	-0.010952	0.532215	-0.033143	-0.136908	3.886718	-0.245778	0.000000	0.000000	18.701299	0.855083	-3.529409	8.324441	-17.302837	102.441954	22.549121	27.455553	-9.019240	-11.116751	1.374812	-7.381221	158.588657	2.290324	14.087009	-29.136323	-11.236120
4.083333	-0.115680	-0.371332	88.945654	0.155353	0.903564	0.479032	-7.752430	-0.443274	-18.421663	8.284703	0.144595	32.309671	9.882994	0.000000	-9.216164	-1.068798	3.703849	0.503510	0.008788	28.975448	-0.054513	0.000000	-0.015824	0.338710	-0.004234	-0.029387	0.450485	-0.004499	-0.025997	0.823540	-0.004499	-0.018085	0.823540	-0.003705	-0.014694	0.690698	-0.003440	-0.009042	0.524662	-0.003176	-0.113029	3.831558	-0.023549	0.000000	0.000000	18.685018	1.013652	-3.851539	7.992562	-17.359088	101.058653	22.519000	27.086444	-8.444753	-11.211259	1.421818	-7.431941	158.090785	2.328951	13.300612	-29.347673	-12.149777
4.100000	-0.171216	-0.488478	89.024360	0.154921	0.903259	0.479533	-7.535429	-0.536232	-18.630642	8.369033	0.146067	32.620431	10.261032	0.000000	-9.035861	-0.996163	3.818024	0.503406	0.008786	28.992159	-0.120424	0.000000	-0.012602	0.334991	0.034287	-0.023402	0.445538	0.036430	-0.020703	0.814497	0.036430	-0.014402	0.814497	0.030001	-0.011702	0.683113	0.027858	-0.007201	0.518901	0.025715	-0.090012	3.789482	0.190693	0.000000	0.000000	18.676482	1.151707	-4.103211	7.673495	-17.407562	99.746604	22.456172	26.680467	-7.687290	-11.160163	1.490903	-7.470976	157.700007	2.333753	12.366363	-29.202819	-13.045770
4.116667	-0.231325	-0.597210	89.102678	0.154492	0.902979	0.479959	-7.348702	-0.625100	-18.720500	8.426258	0.147066	32.861596	10.513851	0.000000	-8.859852	-0.920702	3.912152	0.500206	0.008730	29.006372	-0.191264	0.000000	-0.009475	0.331931	0.072084	-0.017596	0.441468	0.076589	-0.015566	0.807056	0.076589	-0.010829	0.807056	0.063074	-0.008798	0.676873	0.058568	-0.005414	0.514161	0.054063	-0.067678	3.754865	0.400911	0.000000	0.000000	18.654314	1.219638	-4.361464	7.422724	-17.443731	98.865066	22.396085	26.006404	-6.862746	-11.012081	1.577646	-7.496668	157.329197	2.313331	11.508130	-28.799660	-13.834961
4.133333	-0.289729	-0.689674	89.185223	0.154074	0.902726	0.480337	-7.210232	-0.698949	-18.693814	8.436429	0.147243	33.003350	10.639098	0.000000	-8.697160	-0.850396	4.058683	0.492339	0.008593	29.004784	-0.362374	0.000000	-0.009243	0.330480	0.103523	-0.017164	0.439538	0.109993	-0.015185	0.803528	0.109993	-0.010563	0.803528	0.090583	-0.008583	0.673914	0.084112	-0.005281	0.511913	0.077642	-0.066019	3.738452	0.575764	0.000000	0.000000	18.653201	1.227783	-4.561822	7.271126	-17.464590	98.449966	22.327530	25.070760	-5.942143	-10.773016	1.678122	-7.508487	157.019005	2.255493	10.638632	-28.118551	-14.557517
4.150000	-0.357721	-0.784859	89.273716	0.153669	0.902492	0.480675	-7.077855	-0.773088	-18.534351	8.450250	0.147485	33.065994	10.560438	0.000000	-8.520299	-0.773789	4.173459	0.499963	0.008726	29.000872	-0.511283	0.000000	-0.007721	0.328862	0.133910	-0.014339	0.437387	0.142280	-0.012685	0.799596	0.142280	-0.008825	0.799596	0.117171	-0.007170	0.670616	0.108802	-0.004412	0.509408	0.100433	-0.055152	3.720158	0.744768	0.000000	0.000000	18.601387	1.175344	-4.784428	7.170391	-17.467281	98.378507	22.241263	24.020876	-5.058029	-10.509479	1.831023	-7.516920	156.702790	2.251490	9.962990	-27.372887	-15.183328
4.166667	-0.423112	-0.867977	89.371215	0.153274	0.902282	0.480938	-6.981769	-0.844390	-18.475303	8.451192	0.147501	33.069464	10.569093	0.000000	-8.363407	-0.703568	4.369367	0.495496	0.008648	28.969235	-0.767245	0.000000	-0.007580	0.328368	0.155727	-0.014078	0.436729	0.165460	-0.012454	0.798394	0.165460	-0.008664	0.798394	0.136261	-0.007039	0.669608	0.126529	-0.004331	0.508642	0.116796	-0.054146	3.714564	0.866109	0.000000	0.000000	18.512530	1.075793	-4.986557	7.125073	-17.475887	98.503809	22.182421	22.945532	-4.228404	-10.202411	1.974945	-7.515616	156.487583	2.202684	9.281702	-26.521516	-15.733899
4.183333	-0.475459	-0.930968	89.468952	0.152895	0.902132	0.481150	-6.927279	-0.895494	-18.383412	8.435344	0.147225	32.975752	10.482963	0.000000	-8.232698	-0.647443	4.574331	0.488870	0.008532	28.912698	-1.054900	0.000000	-0.009482	0.330372	0.168089	-0.017610	0.439395	0.178595	-0.015579	0.803267	0.178595	-0.010838	0.803267	0.147078	-0.008805	0.673695	0.136573	-0.005418	0.511746	0.126067	-0.067732	3.737235	0.934862	0.000000	0.000000	18.329952	0.929596	-5.133567	7.165751	-17.474634	98.952267	22.133257	21.837863	-3.495129	-9.841886	2.131837	-7.492606	156.379814	2.139194	8.742604	-25.527290	-16.072434
4.200000	-0.525357	-0.975939	89.551866	0.152540	0.902010	0.481283	-6.893637	-0.946408	-18.256414	8.446280	0.147415	32.829917	10.298214	0.000000	-8.130455	-0.592475	4.811860	0.483071	0.008431	28.863896	-1.382966	0.000000	-0.013022	0.332664	0.174713	-0.024183	0.442443	0.185633	-0.021394	0.808839	0.185633	-0.014883	0.808839	0.152874	-0.012092	0.678368	0.141954	-0.007441	0.515297	0.131035	-0.093015	3.763162	0.971702	0.000000	0.000000	18.056253	0.790650	-5.285881	7.265691	-17.478222	99.616714	22.123552	20.664826	-2.842871	-9.506930	2.255675	-7.462113	156.338527	2.015093	8.263294	-24.463348	-16.327700
4.216667	-0.568497	-1.009332	89.633678	0.152207	0.901923	0.481351	-6.882739	-0.991191	-18.186732	8.463269	0.147712	32.631084	10.108898	0.000000	-8.048166	-0.544406	5.038158	0.478334	0.008349	28.805029	-1.694936	0.000000	-0.017267	0.335977	0.175580	-0.032067	0.446849	0.186553	-0.028368	0.816893	0.186553	-0.019735	0.816893	0.153632	-0.016034	0.685123	0.142659	-0.009866	0.520428	0.131685	-0.123338	3.800634	0.976522	0.000000	0.000000	17.710607	0.643594	-5.401794	7.379746	-17.485000	100.339788	22.135037	19.322049	-2.231412	-9.238660	2.379918	-7.432203	156.271617	1.939417	7.754154	-23.516161	-16.579796
4.233333	-0.597369	-1.023184	89.714561	0.151887	0.901894	0.481378	-6.901826	-1.018945	-18.137680	8.477849	0.147966	32.357131	9.857994	0.000000	-7.994887	-0.510674	5.254486	0.472989	0.008255	28.751324	-1.988379	0.000000	-0.023603	0.341293	0.168043	-0.043832	0.453920	0.178546	-0.038777	0.829820	0.178546	-0.026975	0.829820	0.147038	-0.021917	0.695964	0.136535	-0.013487	0.528663	0.126032	-0.168591	3.860773	0.934605	0.000000	0.000000	17.299093	0.495834	-5.439966	7.550666	-17.495291	101.227251	22.176670	17.999726	-1.750925	-8.980661	2.496177	-7.382707	156.264021	1.863937	7.381784	-22.607228	-16.629807
4.250000	-0.635439	-1.037824	89.783700	0.151630	0.901880	0.481349	-6.912417	-1.059152	-18.146119	8.523083	0.148756	32.075092	9.590907	0.000000	-7.950604	-0.467832	5.451470	0.469865	0.008201	28.701589	-2.249514	0.000000	-0.028629	0.344175	0.160414	-0.053166	0.457752	0.170440	-0.047034	0.836826	0.170440	-0.032720	0.836826	0.140363	-0.026584	0.701841	0.130337	-0.016358	0.533126	0.120311	-0.204491	3.893371	0.892177	0.000000	0.000000	16.874471	0.357059	-5.528060	7.722807	-17.479020	102.183292	22.200898	16.675982	-1.383466	-8.811195	2.584563	-7.345240	156.230284	1.788652	6.994906	-21.799819	-16.678246
